PathFileType	4	(X/Y/Z)	E:\Qualisys_Data\Carbon_Farble_Plate\Data\Amateur_Runner\S1\T3\S1T3V13_c3d.trc
DataRate	CameraRate	NumFrames	NumMarkers	Units	OrigDataRate	OrigDataStartFrame	OrigNumFrames
200.000000	200.000000	4	39	mm	200.000000	79	318
Frame#	Time	LSHO			RSHO			LICST			RICST			LASIS			LHEEL			RASIS			LTROC			RTROC			SACR			LTH1			LSK4			LTH2			LTH3			RHM5			LSK2			LTH4			RTH1			LTOE			RTH2			RTH3			RTH4			LLEP			RLEP			LSK1			LSK3			RSK1			LHM5			RSK2			LFT1			RSK3			RSK4			LLME			RLME			RTOE			RHEEL			RFT1			RFT2			LFT2			
		X1	Y1	Z1	X2	Y2	Z2	X3	Y3	Z3	X4	Y4	Z4	X5	Y5	Z5	X6	Y6	Z6	X7	Y7	Z7	X8	Y8	Z8	X9	Y9	Z9	X10	Y10	Z10	X11	Y11	Z11	X12	Y12	Z12	X13	Y13	Z13	X14	Y14	Z14	X15	Y15	Z15	X16	Y16	Z16	X17	Y17	Z17	X18	Y18	Z18	X19	Y19	Z19	X20	Y20	Z20	X21	Y21	Z21	X22	Y22	Z22	X23	Y23	Z23	X24	Y24	Z24	X25	Y25	Z25	X26	Y26	Z26	X27	Y27	Z27	X28	Y28	Z28	X29	Y29	Z29	X30	Y30	Z30	X31	Y31	Z31	X32	Y32	Z32	X33	Y33	Z33	X34	Y34	Z34	X35	Y35	Z35	X36	Y36	Z36	X37	Y37	Z37	X38	Y38	Z38	X39	Y39	Z39	

80	0.395	-1025.5791015625	1552.504516601562	-598.7611694335938	-942.3817749023438	1553.011352539062	-287.9923706054688	-1006.297058105469	1083.257446289062	-552.1048583984375	-994.9728393554688	1099.4833984375	-258.263671875	-962.501708984375	1043.129638671875	-525.8499145507812	-872.0411987304688	115.3064041137695	-454.5872802734375	-962.5050048828124	1046.548217773438	-263.573974609375	-1057.541259765625	962.3539428710938	-573.2977294921875	-1092.91455078125	981.3132934570312	-235.3156585693359	-1118.096923828125	1114.17431640625	-399.3389282226562	-890.2941284179688	846.0429077148438	-541.4258422851562	-901.0809936523438	283.1208801269531	-489.0562744140625	-964.8723754882812	812.582763671875	-571.34033203125	-858.3717041015625	748.0682373046875	-526.0738525390625	-1462.708129882812	124.4562072753906	-271.0544738769531	-912.1981811523438	378.9072265625	-527.9190063476562	-937.0681762695312	719.7587280273438	-545.1998901367188	-1016.359252929688	819.5928955078125	-253.1981811523438	-631.1289672851562	177.3450775146484	-478.2981872558594	-1087.5107421875	846.2330322265625	-228.8813934326172	-1054.440307617188	726.8504028320312	-263.8501892089844	-1127.407348632812	756.1064453125	-246.4871673583984	-861.5897827148438	590.72412109375	-516.3468627929688	-1173.0009765625	587.5307006835938	-283.1647644042969	-828.4097290039062	383.6956787109375	-528.2686157226562	-826.596435546875	282.5193176269531	-522.3400268554688	-1300.32373046875	442.405517578125	-263.8179931640625	-693.1502075195312	130.2729949951172	-530.7284545898438	-1361.843017578125	494.1199645996094	-276.9849243164062	-854.2015380859375	92.58854675292967	-427.8090209960938	-1362.0029296875	363.3171997070312	-273.0624389648438	-1421.124633789062	414.0276489257812	-299.2655029296875	-835.5646362304688	155.8583374023438	-511.0670166015625	-1473.330444335938	279.7410278320312	-277.8989868164062	-1421.044799804688	87.20002746582031	-341.8303833007812	-1530.470947265625	313.1347961425781	-322.1105041503906	-1548.242309570312	294.2739868164062	-356.0123596191406	-1554.993774414062	297.7591247558594	-304.1781616210938	-861.2366943359375	81.59498596191406	-476.4124145507812
81	0.4	-1009.225830078125	1551.108642578125	-599.66650390625	-925.6143188476562	1552.453857421875	-289.135009765625	-988.6117553710938	1081.87744140625	-551.9523315429688	-978.4949951171876	1098.755126953125	-258.4166870117188	-945.022705078125	1042.080200195312	-526.2626342773438	-848.1964721679688	112.9661712646484	-455.3367919921875	-946.1784057617188	1045.997192382812	-263.7665100097656	-1040.7578125	960.7796020507812	-573.4081420898438	-1075.82177734375	980.2115478515624	-235.3933715820312	-1101.77880859375	1112.937255859375	-399.5677490234375	-875.4951782226562	842.1505126953125	-541.41064453125	-881.5197143554688	280.3017578125	-488.6539611816406	-950.2882080078124	809.61865234375	-572.7703247070312	-844.41796875	743.868408203125	-525.2566528320312	-1452.077392578125	130.1643981933594	-270.6645202636719	-894.6727905273438	376.3552551269531	-527.8965454101562	-923.0327758789062	715.780029296875	-546.6886596679688	-998.1826782226562	819.220458984375	-253.9739990234375	-609.367919921875	181.9247894287109	-479.1006164550781	-1069.314575195312	844.4365234375	-229.5408782958984	-1035.749267578125	726.1245727539062	-265.3425598144531	-1108.90380859375	754.3480224609375	-247.3979187011719	-847.3950805664062	588.1394653320312	-515.7511596679688	-1153.628784179688	585.820068359375	-283.2059020996094	-810.9779052734375	382.7508544921875	-528.47412109375	-807.4456787109375	281.7067260742188	-522.6920166015625	-1285.140625	443.418212890625	-263.8218994140625	-669.9876098632812	132.7111663818359	-531.3095092773438	-1344.960083007812	496.81884765625	-277.24462890625	-830.3460083007812	90.68133544921876	-428.4933166503906	-1349.23388671875	366.1924438476562	-272.8548278808594	-1407.365478515625	419.1887817382812	-299.4671936035156	-811.570556640625	153.1477661132812	-509.704833984375	-1462.356323242188	285.5052795410156	-277.4540710449219	-1411.4501953125	92.59245300292967	-341.44287109375	-1519.892456054688	319.0415954589844	-321.939697265625	-1537.410278320312	299.3879699707031	-355.1808776855469	-1544.128784179688	303.5914001464844	-303.0757751464844	-837.000732421875	79.36836242675781	-476.8181457519531
82	0.405	-992.3904418945312	1549.339965820312	-600.9483642578125	-908.9259033203124	1551.956787109375	-290.2899475097656	-972.8692016601562	1080.395141601562	-552.2706909179688	-962.09912109375	1097.9990234375	-258.1573486328125	-928.2456665039062	1040.614990234375	-526.0430297851562	-826.4110717773438	110.8611526489258	-455.5373229980469	-929.3848266601562	1045.295166015625	-263.6551208496094	-1024.392211914062	958.9319458007812	-573.1358642578125	-1058.7109375	978.7120971679688	-234.7486724853516	-1085.218872070312	1111.759643554688	-399.4200744628906	-861.0387573242188	837.6679077148438	-541.2359619140625	-862.4954223632812	277.7954406738281	-488.8515319824219	-935.4374389648438	806.304931640625	-574.243896484375	-829.4951782226562	739.9871215820312	-525.37890625	-1441.333129882812	136.4302978515625	-270.3874206542969	-877.2634887695312	373.5746459960938	-527.9666137695312	-909.31201171875	711.6917724609375	-548.602294921875	-980.1511840820312	818.0230712890625	-255.8249816894531	-588.6475219726562	185.3717651367188	-479.5519409179688	-1051.015502929688	842.6185302734375	-229.9315338134766	-1016.838989257812	724.2042236328125	-267.4263305664062	-1089.795776367188	752.4219970703125	-247.8079986572266	-832.825439453125	585.73486328125	-515.3399658203125	-1134.40185546875	583.2731323242188	-283.9021301269531	-793.7706298828125	381.3093872070312	-528.3603515625	-788.2671508789062	280.3554992675781	-523.0902709960938	-1269.637817382812	444.2914428710938	-264.1395874023438	-648.158203125	134.3748016357422	-531.8377075195312	-1327.723876953125	499.2950134277344	-277.7027587890625	-807.6563110351562	88.9129867553711	-428.848388671875	-1335.445190429688	369.1491088867188	-272.7489013671875	-1392.306640625	423.489990234375	-299.4039306640625	-789.9214477539062	151.9573974609375	-510.1316833496094	-1448.725463867188	291.9110412597656	-277.893798828125	-1401.234375	97.99815368652344	-341.6595153808594	-1508.8994140625	324.7206115722656	-321.3698425292969	-1526.41943359375	305.1969299316406	-354.2428283691406	-1532.241455078125	309.5145263671875	-302.1135559082031	-813.9220581054688	77.21886444091797	-477.0116882324219
83	0.41	-975.5607299804688	1547.496704101562	-602.232666015625	-892.1971435546875	1550.75048828125	-291.1061401367188	-957.5723876953124	1078.557373046875	-552.910888671875	-945.6729125976562	1096.901000976562	-258.3385925292969	-911.4730834960938	1039.44140625	-526.093017578125	-805.3836059570312	108.4984664916992	-456.0467529296875	-912.6301879882812	1044.321411132812	-263.6353149414062	-1007.885314941406	956.868408203125	-573.1072998046875	-1041.365844726562	976.81591796875	-234.7213134765625	-1068.80419921875	1110.013916015625	-399.714599609375	-846.5618896484375	833.3614501953125	-541.4373779296875	-843.740478515625	275.5936584472656	-489.0696411132812	-920.7112426757812	802.8129272460938	-575.6796875	-815.7965087890625	735.2286376953125	-524.8176879882812	-1430.4248046875	141.6302337646484	-270.2727355957031	-860.1793212890625	371.2331848144531	-528.208740234375	-895.5260620117188	707.9512939453125	-550.8024291992188	-961.5578002929688	815.95703125	-257.9669799804688	-569.4572143554688	187.9884338378906	-479.38525390625	-1032.44140625	839.7026977539062	-230.6876068115234	-997.4437255859376	722.4930419921875	-269.3785705566406	-1070.396118164062	749.3750610351562	-248.0720367431641	-817.9271240234375	583.43310546875	-514.6759643554688	-1115.026977539062	580.6507568359375	-285.0271606445312	-776.6615600585938	379.8013000488281	-528.424072265625	-769.5224609375	278.9725341796875	-522.7465209960938	-1253.787353515625	445.174560546875	-264.2077331542969	-628.0452270507812	136.1709289550781	-531.8941650390625	-1310.426635742188	501.6184997558594	-278.2400512695312	-786.28857421875	86.64607238769531	-429.2164916992188	-1321.556274414062	372.15869140625	-271.8930358886719	-1376.635375976562	427.2611083984375	-299.012451171875	-769.7642822265625	150.4160614013672	-510.3289184570312	-1437.317260742188	296.5425415039062	-276.4863586425781	-1390.166137695312	103.4426651000977	-341.31787109375	-1496.677612304688	331.1265869140625	-320.8992004394531	-1515.883056640625	311.8807678222656	-353.6607971191406	-1520.897338867188	316.4015502929688	-301.9339294433594	-792.065185546875	75.15907287597656	-477.264404296875
